<mxfile host="app.diagrams.net" modified="2022-04-15T06:14:05.244Z" agent="5.0 (Windows NT 10.0; Win64; x64) AppleWebKit/537.36 (KHTML, like Gecko) Chrome/100.0.4896.88 Safari/537.36" etag="rsTfUo_tbonsXP-oV3aL" version="17.4.4" type="github">
  <diagram id="C5RBs43oDa-KdzZeNtuy" name="Page-1">
    <mxGraphModel dx="1550" dy="835" grid="1" gridSize="10" guides="1" tooltips="1" connect="1" arrows="1" fold="1" page="1" pageScale="1" pageWidth="827" pageHeight="1169" math="0" shadow="0">
      <root>
        <mxCell id="WIyWlLk6GJQsqaUBKTNV-0" />
        <mxCell id="WIyWlLk6GJQsqaUBKTNV-1" parent="WIyWlLk6GJQsqaUBKTNV-0" />
        <mxCell id="WIyWlLk6GJQsqaUBKTNV-3" value="dest_cargo" style="rounded=1;whiteSpace=wrap;html=1;fontSize=14;glass=0;strokeWidth=1;shadow=0;gradientColor=none;fillColor=default;" parent="WIyWlLk6GJQsqaUBKTNV-1" vertex="1">
          <mxGeometry x="90" y="110" width="120" height="40" as="geometry" />
        </mxCell>
        <mxCell id="WIyWlLk6GJQsqaUBKTNV-7" value="OriginCargo&amp;nbsp;&lt;b style=&quot;font-size: 14px;&quot;&gt;1&lt;/b&gt;" style="rounded=1;whiteSpace=wrap;html=1;fontSize=14;glass=0;strokeWidth=1;shadow=0;" parent="WIyWlLk6GJQsqaUBKTNV-1" vertex="1">
          <mxGeometry x="240" y="110" width="120" height="40" as="geometry" />
        </mxCell>
        <mxCell id="WIyWlLk6GJQsqaUBKTNV-12" value="OriginCargo&amp;nbsp;&lt;b style=&quot;font-size: 14px;&quot;&gt;2&lt;/b&gt;" style="rounded=1;whiteSpace=wrap;html=1;fontSize=14;glass=0;strokeWidth=1;shadow=0;" parent="WIyWlLk6GJQsqaUBKTNV-1" vertex="1">
          <mxGeometry x="390" y="110" width="120" height="40" as="geometry" />
        </mxCell>
        <mxCell id="SqZgt--YvznunEqV0woP-0" value="OriginCargo &lt;b style=&quot;font-size: 14px;&quot;&gt;n&lt;/b&gt;" style="rounded=1;whiteSpace=wrap;html=1;fontSize=14;glass=0;strokeWidth=1;shadow=0;" vertex="1" parent="WIyWlLk6GJQsqaUBKTNV-1">
          <mxGeometry x="600" y="110" width="120" height="40" as="geometry" />
        </mxCell>
        <mxCell id="SqZgt--YvznunEqV0woP-1" value="&lt;b style=&quot;font-size: 14px;&quot;&gt;Sequence&lt;/b&gt;" style="text;html=1;strokeColor=none;fillColor=none;align=center;verticalAlign=middle;whiteSpace=wrap;rounded=0;fontSize=14;" vertex="1" parent="WIyWlLk6GJQsqaUBKTNV-1">
          <mxGeometry x="10" y="115" width="60" height="30" as="geometry" />
        </mxCell>
        <mxCell id="SqZgt--YvznunEqV0woP-2" value="&lt;b style=&quot;font-size: 14px;&quot;&gt;……&lt;/b&gt;" style="text;html=1;strokeColor=none;fillColor=none;align=center;verticalAlign=middle;whiteSpace=wrap;rounded=0;fontSize=14;" vertex="1" parent="WIyWlLk6GJQsqaUBKTNV-1">
          <mxGeometry x="520" y="115" width="60" height="30" as="geometry" />
        </mxCell>
        <mxCell id="SqZgt--YvznunEqV0woP-4" value="&lt;b style=&quot;font-size: 14px;&quot;&gt;Feature&lt;/b&gt;" style="text;html=1;strokeColor=none;fillColor=none;align=center;verticalAlign=middle;whiteSpace=wrap;rounded=0;fontSize=14;" vertex="1" parent="WIyWlLk6GJQsqaUBKTNV-1">
          <mxGeometry x="10" y="220" width="70" height="30" as="geometry" />
        </mxCell>
        <mxCell id="SqZgt--YvznunEqV0woP-5" value="CargoBasic" style="ellipse;whiteSpace=wrap;html=1;fillColor=default;gradientColor=none;fontSize=14;" vertex="1" parent="WIyWlLk6GJQsqaUBKTNV-1">
          <mxGeometry x="130" y="210" width="80" height="50" as="geometry" />
        </mxCell>
        <mxCell id="SqZgt--YvznunEqV0woP-7" value="shipper" style="ellipse;whiteSpace=wrap;html=1;fillColor=default;gradientColor=none;fontSize=14;" vertex="1" parent="WIyWlLk6GJQsqaUBKTNV-1">
          <mxGeometry x="280" y="210" width="80" height="50" as="geometry" />
        </mxCell>
        <mxCell id="SqZgt--YvznunEqV0woP-10" style="edgeStyle=orthogonalEdgeStyle;rounded=0;orthogonalLoop=1;jettySize=auto;html=1;entryX=0.5;entryY=0;entryDx=0;entryDy=0;fontSize=14;" edge="1" parent="WIyWlLk6GJQsqaUBKTNV-1" source="SqZgt--YvznunEqV0woP-8" target="SqZgt--YvznunEqV0woP-11">
          <mxGeometry relative="1" as="geometry">
            <mxPoint x="485" y="320" as="targetPoint" />
            <Array as="points">
              <mxPoint x="485" y="290" />
              <mxPoint x="400" y="290" />
              <mxPoint x="400" y="320" />
            </Array>
          </mxGeometry>
        </mxCell>
        <mxCell id="SqZgt--YvznunEqV0woP-14" style="edgeStyle=orthogonalEdgeStyle;rounded=0;orthogonalLoop=1;jettySize=auto;html=1;entryX=0.5;entryY=0;entryDx=0;entryDy=0;fontSize=14;" edge="1" parent="WIyWlLk6GJQsqaUBKTNV-1" source="SqZgt--YvznunEqV0woP-8" target="SqZgt--YvznunEqV0woP-12">
          <mxGeometry relative="1" as="geometry">
            <Array as="points">
              <mxPoint x="485" y="290" />
              <mxPoint x="565" y="290" />
            </Array>
          </mxGeometry>
        </mxCell>
        <mxCell id="SqZgt--YvznunEqV0woP-8" value="envionment" style="ellipse;whiteSpace=wrap;html=1;fillColor=default;gradientColor=none;fontSize=13;" vertex="1" parent="WIyWlLk6GJQsqaUBKTNV-1">
          <mxGeometry x="430" y="210" width="110" height="50" as="geometry" />
        </mxCell>
        <mxCell id="SqZgt--YvznunEqV0woP-11" value="Oil" style="ellipse;whiteSpace=wrap;html=1;fillColor=default;gradientColor=none;fontSize=14;" vertex="1" parent="WIyWlLk6GJQsqaUBKTNV-1">
          <mxGeometry x="370" y="320" width="70" height="50" as="geometry" />
        </mxCell>
        <mxCell id="SqZgt--YvznunEqV0woP-12" value="weather" style="ellipse;whiteSpace=wrap;html=1;fillColor=default;gradientColor=none;fontSize=14;" vertex="1" parent="WIyWlLk6GJQsqaUBKTNV-1">
          <mxGeometry x="530" y="320" width="70" height="50" as="geometry" />
        </mxCell>
        <mxCell id="SqZgt--YvznunEqV0woP-15" value="&lt;b&gt;Input&lt;/b&gt;" style="text;html=1;strokeColor=none;fillColor=none;align=center;verticalAlign=middle;whiteSpace=wrap;rounded=0;fontSize=14;" vertex="1" parent="WIyWlLk6GJQsqaUBKTNV-1">
          <mxGeometry x="10" y="430" width="70" height="30" as="geometry" />
        </mxCell>
        <mxCell id="SqZgt--YvznunEqV0woP-16" value="dest_cargo&amp;nbsp; feature" style="rounded=0;whiteSpace=wrap;html=1;fontSize=13;fillColor=default;gradientColor=none;" vertex="1" parent="WIyWlLk6GJQsqaUBKTNV-1">
          <mxGeometry x="100" y="430" width="120" height="40" as="geometry" />
        </mxCell>
        <mxCell id="SqZgt--YvznunEqV0woP-28" style="edgeStyle=orthogonalEdgeStyle;rounded=0;orthogonalLoop=1;jettySize=auto;html=1;entryX=0;entryY=0.5;entryDx=0;entryDy=0;fontSize=13;" edge="1" parent="WIyWlLk6GJQsqaUBKTNV-1" source="SqZgt--YvznunEqV0woP-17" target="SqZgt--YvznunEqV0woP-24">
          <mxGeometry relative="1" as="geometry" />
        </mxCell>
        <mxCell id="SqZgt--YvznunEqV0woP-17" value="&lt;span style=&quot;font-size: 14px&quot;&gt;OriginCargo&amp;nbsp;&lt;/span&gt;&lt;b style=&quot;font-size: 14px&quot;&gt;1 feature&lt;/b&gt;" style="rounded=0;whiteSpace=wrap;html=1;fontSize=13;fillColor=default;gradientColor=none;" vertex="1" parent="WIyWlLk6GJQsqaUBKTNV-1">
          <mxGeometry x="220" y="430" width="140" height="40" as="geometry" />
        </mxCell>
        <mxCell id="SqZgt--YvznunEqV0woP-29" style="edgeStyle=orthogonalEdgeStyle;rounded=0;orthogonalLoop=1;jettySize=auto;html=1;entryX=1;entryY=0.5;entryDx=0;entryDy=0;fontSize=13;" edge="1" parent="WIyWlLk6GJQsqaUBKTNV-1" source="SqZgt--YvznunEqV0woP-18" target="SqZgt--YvznunEqV0woP-24">
          <mxGeometry relative="1" as="geometry">
            <Array as="points">
              <mxPoint x="466" y="585" />
            </Array>
          </mxGeometry>
        </mxCell>
        <mxCell id="SqZgt--YvznunEqV0woP-18" value="&lt;span style=&quot;font-size: 14px&quot;&gt;OriginCargo 2&lt;/span&gt;&lt;b style=&quot;font-size: 14px&quot;&gt;&amp;nbsp;feature&lt;/b&gt;" style="rounded=0;whiteSpace=wrap;html=1;fontSize=13;fillColor=default;gradientColor=none;" vertex="1" parent="WIyWlLk6GJQsqaUBKTNV-1">
          <mxGeometry x="360" y="430" width="150" height="40" as="geometry" />
        </mxCell>
        <mxCell id="SqZgt--YvznunEqV0woP-20" value="&lt;b style=&quot;font-size: 14px;&quot;&gt;……&lt;/b&gt;" style="text;html=1;strokeColor=none;fillColor=none;align=center;verticalAlign=middle;whiteSpace=wrap;rounded=0;fontSize=14;" vertex="1" parent="WIyWlLk6GJQsqaUBKTNV-1">
          <mxGeometry x="510" y="435" width="70" height="25" as="geometry" />
        </mxCell>
        <mxCell id="SqZgt--YvznunEqV0woP-30" style="edgeStyle=orthogonalEdgeStyle;rounded=0;orthogonalLoop=1;jettySize=auto;html=1;entryX=1;entryY=0.5;entryDx=0;entryDy=0;fontSize=13;" edge="1" parent="WIyWlLk6GJQsqaUBKTNV-1" source="SqZgt--YvznunEqV0woP-21" target="SqZgt--YvznunEqV0woP-24">
          <mxGeometry relative="1" as="geometry">
            <Array as="points">
              <mxPoint x="650" y="585" />
            </Array>
          </mxGeometry>
        </mxCell>
        <mxCell id="SqZgt--YvznunEqV0woP-21" value="&lt;span style=&quot;font-size: 14px&quot;&gt;OriginCargo n&lt;/span&gt;&lt;b style=&quot;font-size: 14px&quot;&gt;&amp;nbsp;feature&lt;/b&gt;" style="rounded=0;whiteSpace=wrap;html=1;fontSize=13;fillColor=default;gradientColor=none;" vertex="1" parent="WIyWlLk6GJQsqaUBKTNV-1">
          <mxGeometry x="560" y="430" width="150" height="40" as="geometry" />
        </mxCell>
        <mxCell id="SqZgt--YvznunEqV0woP-22" value="&lt;b&gt;label&lt;/b&gt;" style="text;html=1;strokeColor=none;fillColor=none;align=center;verticalAlign=middle;whiteSpace=wrap;rounded=0;fontSize=14;" vertex="1" parent="WIyWlLk6GJQsqaUBKTNV-1">
          <mxGeometry x="10" y="720" width="70" height="30" as="geometry" />
        </mxCell>
        <mxCell id="SqZgt--YvznunEqV0woP-23" value="dest_cargo_actual_price" style="rounded=0;whiteSpace=wrap;html=1;fontSize=13;fillColor=default;gradientColor=none;" vertex="1" parent="WIyWlLk6GJQsqaUBKTNV-1">
          <mxGeometry x="285" y="705" width="196" height="45" as="geometry" />
        </mxCell>
        <mxCell id="SqZgt--YvznunEqV0woP-24" value="Lgb/深度模型" style="ellipse;whiteSpace=wrap;html=1;aspect=fixed;fontSize=13;fillColor=default;gradientColor=none;" vertex="1" parent="WIyWlLk6GJQsqaUBKTNV-1">
          <mxGeometry x="320" y="522" width="126" height="126" as="geometry" />
        </mxCell>
        <mxCell id="SqZgt--YvznunEqV0woP-27" style="edgeStyle=orthogonalEdgeStyle;rounded=0;orthogonalLoop=1;jettySize=auto;html=1;entryX=0;entryY=0.5;entryDx=0;entryDy=0;fontSize=13;" edge="1" parent="WIyWlLk6GJQsqaUBKTNV-1" source="SqZgt--YvznunEqV0woP-25" target="SqZgt--YvznunEqV0woP-24">
          <mxGeometry relative="1" as="geometry">
            <Array as="points">
              <mxPoint x="190" y="585" />
            </Array>
          </mxGeometry>
        </mxCell>
        <mxCell id="SqZgt--YvznunEqV0woP-25" value="dest_cargo&amp;nbsp; feature" style="rounded=0;whiteSpace=wrap;html=1;fontSize=13;fillColor=default;gradientColor=none;" vertex="1" parent="WIyWlLk6GJQsqaUBKTNV-1">
          <mxGeometry x="100" y="430" width="120" height="40" as="geometry" />
        </mxCell>
        <mxCell id="SqZgt--YvznunEqV0woP-26" value="&lt;b&gt;model&lt;/b&gt;" style="text;html=1;strokeColor=none;fillColor=none;align=center;verticalAlign=middle;whiteSpace=wrap;rounded=0;fontSize=14;" vertex="1" parent="WIyWlLk6GJQsqaUBKTNV-1">
          <mxGeometry x="10" y="570" width="70" height="30" as="geometry" />
        </mxCell>
        <mxCell id="SqZgt--YvznunEqV0woP-31" value="&lt;b&gt;evaluation&lt;/b&gt;" style="text;html=1;strokeColor=none;fillColor=none;align=center;verticalAlign=middle;whiteSpace=wrap;rounded=0;fontSize=14;" vertex="1" parent="WIyWlLk6GJQsqaUBKTNV-1">
          <mxGeometry x="10" y="820" width="70" height="30" as="geometry" />
        </mxCell>
        <mxCell id="SqZgt--YvznunEqV0woP-32" value="MAPE、RMSE、MAE" style="rounded=0;whiteSpace=wrap;html=1;fontSize=13;fillColor=default;gradientColor=none;" vertex="1" parent="WIyWlLk6GJQsqaUBKTNV-1">
          <mxGeometry x="285" y="805" width="196" height="45" as="geometry" />
        </mxCell>
      </root>
    </mxGraphModel>
  </diagram>
</mxfile>
